<?xml version="1.0" encoding="UTF-8"?>
<svg version="1.1" xmlns="http://www.w3.org/2000/svg" width="225" height="225">
<path d="M0 0 C74.25 0 148.5 0 225 0 C225 74.25 225 148.5 225 225 C150.75 225 76.5 225 0 225 C0 150.75 0 76.5 0 0 Z " fill="#FEFEFE" transform="translate(0,0)"/>
<path d="M0 0 C4.29474886 1.94236377 8.32269639 4.22284485 12.375 6.625 C13.47005859 7.25672119 14.56511719 7.88844238 15.69335938 8.53930664 C18.80647543 10.34169762 21.90547901 12.1659147 25 14 C25.72477539 14.42619629 26.44955078 14.85239258 27.19628906 15.29150391 C30.11429055 17.009004 33.01422837 18.75217706 35.90234375 20.51953125 C39.32353658 22.61011136 42.78602747 24.62461963 46.25390625 26.63671875 C47.93419922 27.62103882 47.93419922 27.62103882 49.6484375 28.62524414 C51.87575683 29.92987605 54.10861926 31.22510364 56.34765625 32.50952148 C62.8724321 36.355571 68.51065669 40.02131339 72 47 C72.77647599 53.84826364 72.03235101 59.32581226 68 65 C64.67524694 68.32475306 61.60115227 70.02667933 57 71 C48.47589249 70.91501388 42.69456521 67.54517832 35.4375 63.3125 C34.24826886 62.6332764 33.05831444 61.95531774 31.86767578 61.27856445 C28.82362823 59.54266904 25.7911139 57.78770482 22.76251221 56.02502441 C20.01059826 54.42459352 17.25263558 52.8346306 14.49609375 51.2421875 C10.48764389 48.91989427 6.49004242 46.58032794 2.5 44.2265625 C-1.00070182 42.16251551 -4.51739673 40.13520746 -8.0625 38.1484375 C-8.83899902 37.70798096 -9.61549805 37.26752441 -10.41552734 36.8137207 C-11.82127543 36.01764789 -13.23254844 35.23119647 -14.65087891 34.45776367 C-20.19059124 31.29252074 -24.9405797 27.1782609 -27 21 C-27.77631045 14.54771482 -27.03355012 9.20694652 -23 4 C-15.5064359 -3.9538214 -9.84790263 -3.34173501 0 0 Z " fill="#4385F2" transform="translate(27,96)"/>
<path d="M0 0 C3.94765375 1.5365483 7.39891698 3.78600081 11 6 C12.98095523 7.11213354 14.97434605 8.19978277 16.96875 9.28759766 C27.15376422 14.85304447 37.16965141 20.71074952 47.17578125 26.58984375 C50.82519331 28.73391082 54.48619901 30.85342034 58.16796875 32.94140625 C58.94841553 33.38806641 59.7288623 33.83472656 60.53295898 34.29492188 C61.95892047 35.11020566 63.38912787 35.918131 64.82446289 36.71679688 C69.77590036 39.56752861 72.80925447 42.56180678 75.3125 47.6875 C76.5378147 53.591289 76.01213534 58.85427308 73.4375 64.3125 C69.26157781 68.9167219 64.89320934 72.18476934 58.5625 72.875 C50.29960084 72.37497585 42.97023557 67.07908787 36 63 C34.16034977 61.93716497 32.32049749 60.8746796 30.48046875 59.8125 C26.46227015 57.48396583 22.45503328 55.13765864 18.453125 52.78125 C13.93841136 50.1265203 9.40658244 47.50468719 4.859375 44.90625 C4.26861679 44.56808258 3.67785858 44.22991516 3.06919861 43.88150024 C0.20367073 42.24120452 -2.66374885 40.60455485 -5.53491211 38.97412109 C-6.5688208 38.38195801 -7.60272949 37.78979492 -8.66796875 37.1796875 C-10.03344849 36.40214111 -10.03344849 36.40214111 -11.42651367 35.60888672 C-16.67141746 32.3298889 -20.82546423 28.95074575 -23 23 C-23.94100469 17.09258166 -23.03970729 12.19691892 -20 7 C-13.78248593 0.6241696 -8.94646027 -1.16142993 0 0 Z " fill="#109D58" transform="translate(149,58)"/>
<path d="M0 0 C4.05523038 2.85709413 7.51585617 6.46921234 9.75 10.9375 C10.26299774 16.08429697 10.41628033 20.52498569 8.1875 25.25 C1.25086276 32.89808722 -7.15148649 37.61729527 -16 42.6875 C-17.99153778 43.83770583 -19.98190004 44.98992161 -21.97198486 46.14263916 C-23.20292241 46.85465869 -24.43493057 47.56483149 -25.66815186 48.27288818 C-28.25386341 49.7601882 -30.76641306 51.28177538 -33.25 52.9375 C-36.83806212 52.5800213 -39.62964518 50.69231987 -42.6875 48.8828125 C-43.74839844 48.26792969 -44.80929688 47.65304688 -45.90234375 47.01953125 C-48.10743407 45.73044111 -50.30809527 44.4337399 -52.50390625 43.12890625 C-59.60555746 39.03541536 -66.18453133 36.44705056 -74.25 34.9375 C-71.86582368 32.30436961 -69.33148373 30.68182542 -66.25390625 28.92578125 C-65.23312988 28.34014404 -64.21235352 27.75450684 -63.16064453 27.15112305 C-62.05575684 26.52375244 -60.95086914 25.89638184 -59.8125 25.25 C-58.07054584 24.25352332 -56.3285923 23.25704555 -54.58666992 22.26051331 C-52.7461077 21.20871246 -50.90421914 20.15926788 -49.06201172 19.11035156 C-45.18406365 16.9015567 -41.31244826 14.68180659 -37.44140625 12.4609375 C-34.91949806 11.01522827 -32.39728198 9.57005695 -29.875 8.125 C-29.2681839 7.77716461 -28.6613678 7.42932922 -28.03616333 7.07095337 C-26.30863614 6.08128266 -24.58011931 5.09334003 -22.8515625 4.10546875 C-21.86494629 3.54110107 -20.87833008 2.9767334 -19.86181641 2.39526367 C-13.11213226 -1.37201657 -7.57393904 -2.47609545 0 0 Z " fill="#E84436" transform="translate(89.25,59.0625)"/>
<path d="M0 0 C1.55847656 0.95712891 1.55847656 0.95712891 3.1484375 1.93359375 C3.72110352 2.26697754 4.29376953 2.60036133 4.88378906 2.94384766 C6.12012561 3.66686895 7.3458821 4.40822687 8.56152344 5.16552734 C11.36054525 6.88548376 14.2360547 8.45769922 17.11083984 10.04663086 C19.18961651 11.19960329 21.25656367 12.37116411 23.3203125 13.55078125 C26.92705633 15.60046738 29.07186932 16.52593693 33.1484375 16.93359375 C33.96570313 17.01738281 34.78296875 17.10117188 35.625 17.1875 C36.56472656 17.27837891 36.56472656 17.27837891 37.5234375 17.37109375 C34.21805173 20.12856374 30.93401293 22.40004848 27.1640625 24.47265625 C26.13901611 25.04032715 25.11396973 25.60799805 24.05786133 26.19287109 C22.97400146 26.78793457 21.8901416 27.38299805 20.7734375 27.99609375 C13.24588936 32.16751734 5.74011504 36.35895046 -1.6640625 40.74609375 C-2.67424438 41.33777344 -2.67424438 41.33777344 -3.70483398 41.94140625 C-6.91150908 43.82410873 -10.07791226 45.74641006 -13.203125 47.76171875 C-20.55716423 52.40835492 -26.66573141 55.17361492 -35.4765625 53.37109375 C-40.38369265 51.0513595 -43.2876673 47.65332444 -46.4765625 43.37109375 C-48.31080868 37.86835522 -48.44165077 32.37847734 -45.9140625 27.12109375 C-39.93418346 20.37456355 -33.03453789 16.17150925 -25.1640625 11.87109375 C-23.18807545 10.77865705 -21.21280892 9.68491601 -19.23828125 8.58984375 C-17.79340332 7.80202515 -17.79340332 7.80202515 -16.31933594 6.99829102 C-13.45457592 5.40374817 -13.45457592 5.40374817 -10.75097656 3.53881836 C-4.30140101 -0.77811861 -4.30140101 -0.77811861 0 0 Z " fill="#F9BB05" transform="translate(173.4765625,112.62890625)"/>
</svg>
